<svg width="134" height="24" viewBox="0 0 134 24" fill="none" xmlns="http://www.w3.org/2000/svg">
<path d="M14.5471 24V13.5771H4.09778V24H0V0H4.09778V9.70286H14.5471V0H18.6107V24H14.5471Z" fill="#090E1D"/>
<path d="M46.653 24L44.7749 18.7543H35.3158L33.4377 24H29.1009L38.0136 0H42.0772L50.9557 24H46.653ZM43.4773 15.0514L40.8478 7.85143C40.5064 6.98286 40.2446 6.17143 40.0624 5.41714C39.8803 6.08 39.6185 6.89143 39.277 7.85143L36.6135 15.0514H43.4773Z" fill="#090E1D"/>
<path d="M65.2368 24L56.9047 0H61.3098L66.6711 16.2171C66.967 17.2457 67.1719 17.9771 67.2857 18.4114C67.3768 17.9314 67.5703 17.2 67.8662 16.2171L73.1934 0H77.5302L69.2322 24H65.2368Z" fill="#090E1D"/>
<path d="M87.6514 24V0H103.223V3.87429H91.7491V9.66857H98.8178V13.5429H91.7491V20.1257H103.974V24H87.6514Z" fill="#090E1D"/>
<path d="M134 24H130.278L120.375 8.84571C120.056 8.36572 119.726 7.77143 119.385 7.06286C119.453 7.61143 119.487 8.20572 119.487 8.84571V24H115.423V0H119.385L129.049 14.9143C129.276 15.2571 129.606 15.8629 130.039 16.7314C129.971 16.1143 129.936 15.5086 129.936 14.9143V0H134V24Z" fill="#090E1D"/>
</svg>
