<svg width="48" height="48" viewBox="0 0 48 48" fill="none" xmlns="http://www.w3.org/2000/svg">
<path d="M33 33H13V5H5" stroke="#090E1D" stroke-width="2" stroke-linecap="round" stroke-linejoin="round"/>
<path d="M33 15H17V29H33V15Z" stroke="#090E1D" stroke-width="2" stroke-linecap="round" stroke-linejoin="round"/>
<path d="M12 43C13.6569 43 15 41.6569 15 40C15 38.3431 13.6569 37 12 37C10.3431 37 9 38.3431 9 40C9 41.6569 10.3431 43 12 43Z" stroke="#090E1D" stroke-width="2" stroke-linecap="round" stroke-linejoin="round"/>
<path d="M34 43C35.6569 43 37 41.6569 37 40C37 38.3431 35.6569 37 34 37C32.3431 37 31 38.3431 31 40C31 41.6569 32.3431 43 34 43Z" stroke="#090E1D" stroke-width="2" stroke-linecap="round" stroke-linejoin="round"/>
<path d="M25 19H21" stroke="#090E1D" stroke-width="2" stroke-linecap="round" stroke-linejoin="round"/>
</svg>
