<svg width="24" height="24" viewBox="0 0 24 24" fill="none" xmlns="http://www.w3.org/2000/svg">
<path fill-rule="evenodd" clip-rule="evenodd" d="M18.1431 11.8439L17.4457 16.0287C17.4449 16.0336 17.444 16.0384 17.4431 16.0432C17.3443 16.5866 16.8238 16.947 16.2804 16.8482L4.91154 14.7811C4.53693 14.713 4.2335 14.4381 4.1289 14.072L2.3041 7.6852C2.27857 7.59586 2.26562 7.5034 2.26562 7.41048C2.26562 6.8582 2.71334 6.41048 3.26562 6.41048H16.9915L17.6047 3.78253C17.7293 3.24852 18.2054 2.87073 18.7537 2.87073H20.8186C21.4702 2.87073 21.9985 3.39899 21.9985 4.05065C21.9985 4.7023 21.4702 5.23056 20.8186 5.23056H19.69L18.1431 11.8439Z" fill="#090E1D"/>
<path fill-rule="evenodd" clip-rule="evenodd" d="M6.5 21C5.67157 21 5 20.3284 5 19.5C5 18.6716 5.67157 18 6.5 18C7.32843 18 8 18.6716 8 19.5C8 20.3284 7.32843 21 6.5 21ZM15.5 21C14.6716 21 14 20.3284 14 19.5C14 18.6716 14.6716 18 15.5 18C16.3284 18 17 18.6716 17 19.5C17 20.3284 16.3284 21 15.5 21Z" fill="#090E1D"/>
</svg>
